<?xml version="1.0" standalone="no"?>
<!DOCTYPE svg PUBLIC "-//W3C//DTD SVG 20010904//EN"
 "http://www.w3.org/TR/2001/REC-SVG-20010904/DTD/svg10.dtd">
<svg version="1.0" xmlns="http://www.w3.org/2000/svg"
 width="504.000000pt" height="504.000000pt" viewBox="0 0 504.000000 504.000000"
 preserveAspectRatio="xMidYMid meet">
<metadata>
Created by potrace 1.14, written by Peter Selinger 2001-2017
</metadata>
<g transform="translate(0.000000,504.000000) scale(0.100000,-0.100000)"
fill="#000000" stroke="none">
<path d="M3035 4268 c-45 -26 -44 -23 -45 -475 l0 -433 -558 0 c-462 0 -568
-3 -615 -15 -135 -35 -219 -135 -286 -343 -43 -131 -54 -220 -48 -389 5 -164
24 -242 90 -386 146 -316 479 -559 813 -593 l66 -7 -4 -301 -3 -301 -31 -65
c-37 -77 -95 -139 -156 -168 -41 -19 -276 -81 -391 -103 -103 -19 -128 -29
-137 -55 -13 -32 -3 -72 20 -84 10 -6 323 -10 776 -11 l758 -2 18 23 c43 54
14 102 -74 120 -157 32 -393 92 -438 111 -90 39 -168 145 -190 258 -5 30 -10
172 -10 317 l0 264 25 0 c44 0 177 30 263 60 143 49 259 123 377 239 284 277
379 683 249 1069 -68 205 -190 336 -331 358 l-43 7 0 163 c0 90 2 164 5 164 3
0 27 -11 53 -24 26 -13 96 -37 156 -54 120 -34 164 -59 202 -114 27 -38 54
-116 54 -153 0 -38 37 -75 75 -75 62 0 84 46 66 138 -15 75 -62 169 -107 214
-63 64 -110 89 -226 123 -134 39 -178 57 -235 97 l-43 29 0 85 0 84 53 -30
c72 -40 119 -56 260 -85 155 -32 216 -61 293 -142 71 -73 107 -83 143 -37 38
49 29 79 -49 155 -100 98 -158 125 -370 169 -165 35 -226 65 -314 155 -54 56
-75 64 -111 43z m146 -1059 c19 -7 47 -23 63 -38 31 -28 96 -123 96 -141 0 -6
-38 -10 -105 -10 l-105 0 0 100 c0 55 4 100 9 100 4 0 23 -5 42 -11z m-191
-94 l0 -95 -650 0 c-476 0 -650 3 -650 11 0 23 62 118 96 148 l35 31 584 0
585 0 0 -95z m0 -373 l0 -139 -62 31 c-56 28 -71 31 -148 30 -64 0 -96 -6
-130 -22 -72 -34 -126 -86 -162 -159 -64 -130 -38 -271 68 -377 83 -84 228
-111 349 -65 68 25 151 103 184 173 35 76 41 133 41 407 l0 259 134 0 133 0
12 -69 c33 -205 -8 -428 -113 -604 -22 -39 -74 -106 -115 -149 -121 -129 -240
-204 -408 -255 -79 -24 -105 -27 -243 -27 -180 -1 -255 13 -388 75 -107 49
-190 109 -273 195 -169 177 -251 383 -250 629 0 67 2 128 5 136 2 8 7 26 10
42 l6 27 675 0 675 0 0 -138z m-158 -232 c44 -13 93 -52 113 -91 25 -47 19
-127 -12 -172 -66 -95 -213 -105 -286 -18 -60 71 -57 158 8 230 49 54 106 70
177 51z m-201 -1790 l51 -40 -162 0 -162 0 44 33 c24 18 61 58 82 90 l39 57
29 -50 c15 -27 51 -68 79 -90z"/>
<path d="M2190 2803 c-63 -23 -81 -104 -34 -148 72 -67 190 20 144 106 -19 34
-74 55 -110 42z"/>
<path d="M3266 2704 c-9 -8 -16 -22 -16 -29 0 -15 27 -45 40 -45 15 0 40 31
40 50 0 11 -9 24 -19 30 -25 13 -27 13 -45 -6z"/>
<path d="M1811 2674 c-41 -52 -17 -118 46 -130 27 -5 37 -1 63 24 37 37 38 70
5 106 -33 36 -86 36 -114 0z"/>
<path d="M2153 2453 c-35 -7 -73 -59 -73 -100 0 -25 8 -43 30 -65 28 -28 36
-30 78 -25 71 8 107 66 82 128 -19 45 -68 71 -117 62z"/>
<path d="M1927 2264 c-14 -14 -7 -53 12 -63 26 -14 54 8 49 40 -2 17 -10 25
-28 27 -14 2 -29 0 -33 -4z"/>
<path d="M2207 2060 c-73 -58 14 -158 91 -104 25 17 30 69 10 97 -22 28 -69
32 -101 7z"/>
<path d="M2506 1934 c-31 -30 -8 -69 36 -62 17 2 24 11 26 32 5 43 -32 61 -62
30z"/>
<path d="M1500 3974 c-8 -3 -43 -14 -77 -25 -97 -31 -152 -66 -238 -153 -59
-59 -91 -101 -118 -156 -157 -316 -23 -702 298 -856 38 -19 75 -34 81 -34 11
0 32 117 23 124 -2 1 -31 15 -64 31 -81 38 -183 142 -223 226 -39 85 -53 146
-53 238 0 312 292 545 603 480 128 -27 267 -127 335 -240 56 -94 58 -90 -44
-83 -54 4 -116 2 -157 -5 -38 -7 -70 -10 -73 -7 -7 6 104 93 150 117 20 11 37
27 37 35 0 23 -74 94 -98 94 -22 0 -59 -27 -130 -94 l-43 -41 7 30 c4 17 13
47 21 69 22 65 18 85 -23 102 -20 8 -52 14 -72 12 -37 -3 -37 -3 -44 -58 -4
-30 -11 -93 -15 -139 l-8 -85 -78 107 c-87 119 -99 125 -157 82 -36 -27 -50
-43 -50 -61 0 -6 46 -58 103 -114 66 -68 97 -105 87 -107 -8 -2 -76 5 -150 15
-74 11 -140 17 -147 15 -32 -12 -43 -118 -15 -152 17 -21 20 -21 152 -12 74 5
136 8 138 7 2 -2 -52 -44 -120 -93 -78 -56 -124 -96 -126 -109 -4 -26 41 -74
69 -74 19 0 69 31 180 109 16 11 14 2 -13 -60 -17 -41 -42 -88 -55 -106 -30
-41 -29 -48 10 -71 70 -43 72 -42 102 55 63 204 146 327 259 386 56 29 71 31
177 35 82 3 139 -1 197 -13 86 -17 116 -15 126 11 10 25 -22 132 -66 223 -32
68 -57 101 -122 167 -131 130 -266 185 -457 183 -57 0 -111 -3 -119 -5z"/>
</g>
</svg>
